<svg id="Capa_1" enable-background="new 0 0 512 512" height="512" viewBox="0 0 512 512" width="512" xmlns="http://www.w3.org/2000/svg"><g><path d="m288.147 152c-8.284 0-15-6.716-15-15v-90c0-25.916 21.084-47 47-47h152c8.284 0 15 6.716 15 15s-6.716 15-15 15h-152c-9.374 0-17 7.626-17 17v90c0 8.284-6.716 15-15 15z" fill="#5f55af"/><path d="m472.147 0h-152c-12.354 0-23.603 4.798-32 12.62v139.38c8.284 0 15-6.716 15-15v-90c0-9.374 7.626-17 17-17h152c8.284 0 15-6.716 15-15s-6.716-15-15-15z" fill="#453d83"/><path d="m416.147 322h-256c-8.284 0-15 6.716-15 15v32c0 78.851 64.149 143 143 143s143-64.149 143-143v-32c0-8.284-6.716-15-15-15z" fill="#453d83"/><path d="m431.147 369v-32c0-8.284-6.716-15-15-15h-128v190c78.851 0 143-64.149 143-143z" fill="#2d2755"/><path d="m384.147 122h-81l-15 11-15-11h-96c-17.67 0-32 14.33-32 32v198h128l15-16.87 15 16.87h128v-183c0-25.96-21.04-47-47-47z" fill="#5f55af"/><path d="m431.147 169v183h-128l-15-16.87v-202.13l15-11h81c25.96 0 47 21.04 47 47z" fill="#453d83"/><path d="m273.147 122h30v230h-30z" fill="#d5e8fe"/><path d="m288.147 122h15v230h-15z" fill="#b5dbff"/><path d="m305.147 173h-34c-8.284 0-15 6.716-15 15v72c0 8.284 6.716 15 15 15h34c8.284 0 15-6.716 15-15v-72c0-8.284-6.716-15-15-15z" fill="#edf5ff"/><path d="m305.147 173h-17v102h17c8.284 0 15-6.716 15-15v-72c0-8.284-6.716-15-15-15z" fill="#d5e8fe"/><g fill="#7ed8f6"><path d="m39.853 175.937c-8.263 0-14.974-6.685-14.999-14.954-.131-42.428 16.376-82.373 46.48-112.476s70.037-46.651 112.476-46.481c8.284.025 14.979 6.762 14.954 15.046-.025 8.269-6.736 14.954-14.999 14.954-.15-.001-.3 0-.45 0-34.229 0-66.45 13.377-90.768 37.694-24.413 24.413-37.799 56.791-37.693 91.17.025 8.284-6.669 15.021-14.954 15.046-.016.001-.032.001-.047.001z"/><path d="m103.665 175.937c-.028 0-.056 0-.084 0-8.284-.046-14.963-6.798-14.917-15.083.14-25.397 10.058-49.224 27.925-67.093 17.868-17.868 41.695-27.785 67.093-27.926h.085c8.246 0 14.952 6.661 14.998 14.917.045 8.284-6.633 15.037-14.917 15.083-17.447.096-33.8 6.894-46.045 19.139-12.246 12.247-19.043 28.599-19.139 46.045-.047 8.256-6.754 14.918-14.999 14.918z"/></g></g></svg>