<svg height="512pt" viewBox="0 0 512.07136 512" width="512pt" xmlns="http://www.w3.org/2000/svg"><path d="m463.226562 228.824219c-8.980468-23.082031-24.675781-42.9375-45.058593-57.003907-14.058594-8.867187-29.757813-14.816406-46.164063-17.492187-6.789062-1.148437-13.742187-.828125-20.394531.9375-4.820313 1.277344-9.382813 3.386719-13.484375 6.230469-8.359375 5.664062-18.148438 8.859375-28.242188 9.214844h-107.691406c-10.09375-.355469-19.886718-3.550782-28.246094-9.214844-7.585937-5.191406-16.582031-7.933594-25.769531-7.851563-2.71875.019531-5.425781.246094-8.109375.683594-1.789062.253906-3.496094.597656-5.203125.9375-14.53125 3.035156-28.402343 8.640625-40.960937 16.554687-20.382813 14.066407-36.078125 33.921876-45.054688 57.003907-27.199218 65.390625-40.898437 135.601562-40.277344 206.417969-.585937 20.910156 5.875 41.40625 18.34375 58.199218 2.09375 2.707032 4.703126 4.96875 7.679688 6.65625 11.320312 6.34375 25.574219 3.523438 33.625-6.65625l50.429688-68.179687c11.289062-15.199219 29.109374-24.15625 48.042968-24.152344h178.6875c18.933594-.003906 36.753906 8.953125 48.042969 24.152344l50.433594 68.179687c5.042969 6.230469 12.632812 9.851563 20.648437 9.851563 8.019532 0 15.605469-3.621094 20.652344-9.851563 12.46875-16.792968 18.929688-37.289062 18.347656-58.199218.617188-70.816407-13.082031-141.027344-40.277344-206.417969zm0 0" fill="#728f9c"/><path d="m173.945312 161.496094c8.359376 5.664062 18.152344 8.859375 28.246094 9.214844h-25.601562c-10.09375-.355469-19.882813-3.550782-28.246094-9.214844-4.097656-2.84375-8.660156-4.953125-13.480469-6.230469 1.707031-.339844 3.414063-.683594 5.203125-.9375 2.683594-.4375 5.390625-.664063 8.109375-.683594 9.1875-.082031 18.183594 2.660157 25.769531 7.851563zm0 0" fill="#728f9c"/><path d="m503.503906 435.242188c.582032 20.910156-5.878906 41.40625-18.347656 58.199218-7.855469 10.25-22.089844 13.097656-33.28125 6.65625 2.976562-1.6875 5.589844-3.949218 7.679688-6.65625 12.472656-16.792968 18.933593-37.289062 18.347656-58.199218.617187-70.816407-13.082032-141.027344-40.277344-206.417969-8.980469-23.082031-24.671875-42.9375-45.054688-57.003907-12.558593-7.914062-26.429687-13.519531-40.960937-16.554687 6.652344-1.765625 13.605469-2.085937 20.394531-.9375 16.40625 2.675781 32.105469 8.625 46.164063 17.492187 20.382812 14.066407 36.078125 33.921876 45.058593 57.003907 27.195313 65.390625 40.894532 135.601562 40.277344 206.417969zm0 0" fill="#475962"/><path d="m162.167969 230.445312c0 18.851563-15.28125 34.132813-34.132813 34.132813-18.851562 0-34.132812-15.28125-34.132812-34.132813 0-18.851562 15.28125-34.132812 34.132812-34.132812 18.851563 0 34.132813 15.28125 34.132813 34.132812zm0 0" fill="#3a3e48"/><path d="m230.4375 332.84375c0 23.566406-19.105469 42.667969-42.667969 42.667969-23.566406 0-42.667969-19.101563-42.667969-42.667969 0-23.5625 19.101563-42.667969 42.667969-42.667969 23.5625 0 42.667969 19.105469 42.667969 42.667969zm0 0" fill="#475962"/><path d="m358.4375 332.84375c0 18.851562-15.285156 34.132812-34.136719 34.132812-18.851562 0-34.132812-15.28125-34.132812-34.132812s15.28125-34.132812 34.132812-34.132812c18.851563 0 34.136719 15.28125 34.136719 34.132812zm0 0" fill="#3a3e48"/><path d="m349.902344 332.84375c0 14.140625-11.460938 25.601562-25.601563 25.601562-14.136719 0-25.597656-11.460937-25.597656-25.601562 0-14.136719 11.460937-25.601562 25.597656-25.601562 14.140625 0 25.601563 11.464843 25.601563 25.601562zm0 0" fill="#475962"/><path d="m153.636719 230.445312c0 14.136719-11.460938 25.597657-25.601563 25.597657-14.136718 0-25.597656-11.460938-25.597656-25.597657 0-14.140624 11.460938-25.601562 25.597656-25.601562 14.140625 0 25.601563 11.460938 25.601563 25.601562zm0 0" fill="#475962"/><path d="m375.503906 238.976562c0 9.425782-7.644531 17.066407-17.066406 17.066407-9.425781 0-17.070312-7.640625-17.070312-17.066407 0-9.425781 7.644531-17.066406 17.070312-17.066406 9.421875 0 17.066406 7.640625 17.066406 17.066406zm0 0" fill="#00b7f6"/><path d="m409.636719 273.109375c0 9.425781-7.640625 17.066406-17.066407 17.066406-9.425781 0-17.066406-7.640625-17.066406-17.066406s7.640625-17.066406 17.066406-17.066406c9.425782 0 17.066407 7.640625 17.066407 17.066406zm0 0" fill="#9aca5c"/><path d="m443.769531 238.976562c0 9.425782-7.640625 17.066407-17.066406 17.066407s-17.066406-7.640625-17.066406-17.066407c0-9.425781 7.640625-17.066406 17.066406-17.066406s17.066406 7.640625 17.066406 17.066406zm0 0" fill="#f85b44"/><path d="m409.636719 204.84375c0 9.425781-7.640625 17.066406-17.066407 17.066406-9.425781 0-17.066406-7.640625-17.066406-17.066406s7.640625-17.066406 17.066406-17.066406c9.425782 0 17.066407 7.640625 17.066407 17.066406zm0 0" fill="#ffc900"/><path d="m464.761719 512.042969c-10.726563-.003907-20.871094-4.886719-27.5625-13.269531l-50.605469-68.394532c-9.683594-13.027344-24.953125-20.714844-41.1875-20.734375h-178.738281c-16.222657.035157-31.472657 7.71875-41.148438 20.734375l-50.390625 68.113282c-6.757812 8.722656-17.238281 13.746093-28.269531 13.550781-10.492187-.105469-20.351563-5.050781-26.710937-13.394531-13.632813-18.277344-20.714844-40.613282-20.1132818-63.40625-.6250002-71.976563 13.3242188-143.335938 41.0117188-209.78125 9.585937-24.691407 26.429687-45.898438 48.308594-60.824219 15.019531-9.539063 31.824219-15.929688 49.390625-18.773438 13.960937-2.394531 28.304687.699219 40.039062 8.632813 6.945313 4.679687 15.054688 7.339844 23.421875 7.679687h107.65625c8.367188-.339843 16.472657-3 23.417969-7.679687 11.730469-7.9375 26.082031-11.027344 40.046875-8.625 44.683594 6.628906 82.167969 37.164062 97.695313 79.589844 27.6875 66.445312 41.636718 137.804687 41.011718 209.78125.605469 22.789062-6.476562 45.121093-20.105468 63.394531-6.359376 8.351562-16.21875 13.296875-26.714844 13.40625zm-298.09375-119.464844h178.738281c21.617188.050781 41.945312 10.296875 54.84375 27.648437l50.429688 68.101563c3.40625 4.414063 8.742187 6.894531 14.3125 6.648437 5.269531-.023437 10.226562-2.511718 13.398437-6.722656 11.308594-15.3125 17.148437-33.980468 16.578125-53.011718.636719-69.640626-12.832031-138.691407-39.59375-202.988282-8.171875-21.570312-22.738281-40.128906-41.753906-53.1875-13.082032-8.304687-27.714844-13.863281-43.007813-16.351562-9.625-1.703125-19.539062.382812-27.65625 5.828125-9.78125 6.660156-21.265625 10.375-33.09375 10.699219h-107.65625c-11.824219-.320313-23.308593-4.035157-33.082031-10.699219-8.125-5.441407-18.039062-7.53125-27.667969-5.828125-15.292969 2.488281-29.921875 8.046875-43.007812 16.351562-19.015625 13.058594-33.585938 31.621094-41.753907 53.195313-26.761718 64.292969-40.230468 133.34375-39.59375 202.980469-.570312 19.03125 5.273438 37.699218 16.589844 53.011718 3.164063 4.210938 8.121094 6.699219 13.386719 6.722656h.222656c5.574219-.015624 10.835938-2.566406 14.304688-6.929687l50.21875-67.820313c12.894531-17.351562 33.222656-27.597656 54.84375-27.648437zm0 0"/><path d="m466.050781 384.042969c-4.34375-.003907-7.992187-3.269531-8.476562-7.585938-2.496094-22.621093-6.539063-45.042969-12.097657-67.113281-.75-2.957031.132813-6.089844 2.320313-8.21875 2.183594-2.128906 5.339844-2.929688 8.277344-2.097656 2.933593.828125 5.207031 3.160156 5.957031 6.117187 5.753906 22.828125 9.949219 46.019531 12.550781 69.417969.5 4.667969-2.863281 8.859375-7.527343 9.386719-.332032.050781-.667969.082031-1.003907.09375zm0 0"/><path d="m48.214844 366.976562c-.417969 0-.832032-.027343-1.246094-.085937-4.664062-.679687-7.890625-5.011719-7.210938-9.675781 2.140626-14.703125 4.898438-29.292969 8.210938-43.390625.695312-2.96875 2.925781-5.339844 5.84375-6.21875 2.921875-.878907 6.085938-.132813 8.308594 1.953125 2.21875 2.089844 3.160156 5.203125 2.460937 8.171875-3.199219 13.613281-5.863281 27.726562-7.9375 41.941406-.609375 4.191406-4.195312 7.300781-8.429687 7.304687zm0 0"/><path d="m42.703125 443.777344c-4.714844 0-8.535156-3.820313-8.535156-8.535156 0-14.410157.574219-29.011719 1.707031-43.339844.242188-3.039063 2.085938-5.71875 4.839844-7.03125 2.75-1.308594 5.996094-1.054688 8.507812.675781 2.511719 1.726563 3.910156 4.664063 3.667969 7.703125-1.101563 13.894531-1.65625 28.023438-1.65625 41.992188 0 4.714843-3.820313 8.535156-8.53125 8.535156zm0 0"/><path d="m128.035156 273.109375c-23.5625 0-42.667968-19.101563-42.667968-42.664063 0-23.566406 19.105468-42.667968 42.667968-42.667968 23.566406 0 42.667969 19.101562 42.667969 42.667968-.027344 23.550782-19.113281 42.636719-42.667969 42.664063zm0-68.265625c-14.136718 0-25.597656 11.460938-25.597656 25.601562 0 14.136719 11.460938 25.597657 25.597656 25.597657 14.140625 0 25.601563-11.460938 25.601563-25.597657 0-14.140624-11.460938-25.601562-25.601563-25.601562zm0 0"/><path d="m187.769531 375.511719c-23.566406 0-42.667969-19.101563-42.667969-42.667969 0-23.5625 19.101563-42.667969 42.667969-42.667969 23.5625 0 42.667969 19.105469 42.667969 42.667969-.03125 23.554688-19.117188 42.640625-42.667969 42.667969zm0-68.269531c-10.355469 0-19.691406 6.238281-23.652343 15.804687-3.960938 9.566406-1.773438 20.578125 5.550781 27.898437 7.320312 7.320313 18.332031 9.511719 27.898437 5.550782 9.566406-3.964844 15.800782-13.296875 15.800782-23.652344 0-14.136719-11.460938-25.601562-25.597657-25.601562zm0 0"/><path d="m324.300781 375.511719c-17.253906 0-32.8125-10.394531-39.417969-26.339844-6.601562-15.945313-2.953124-34.296875 9.25-46.496094 12.203126-12.203125 30.554688-15.855469 46.496094-9.25 15.945313 6.601563 26.339844 22.160157 26.339844 39.417969-.027344 23.554688-19.113281 42.640625-42.667969 42.667969zm0-68.269531c-14.136719 0-25.597656 11.464843-25.597656 25.601562 0 14.140625 11.460937 25.601562 25.597656 25.601562 14.140625 0 25.601563-11.460937 25.601563-25.601562 0-14.136719-11.460938-25.601562-25.601563-25.601562zm0 0"/><path d="m332.835938 332.84375c0 4.714844-3.820313 8.535156-8.535157 8.535156-4.710937 0-8.53125-3.820312-8.53125-8.535156 0-4.710938 3.820313-8.53125 8.53125-8.53125 4.714844 0 8.535157 3.820312 8.535157 8.53125zm0 0"/><path d="m230.4375 230.445312c0 4.710938-3.824219 8.53125-8.535156 8.53125-4.710938 0-8.535156-3.820312-8.535156-8.53125 0-4.714843 3.824218-8.535156 8.535156-8.535156 4.710937 0 8.535156 3.820313 8.535156 8.535156zm0 0"/><path d="m298.703125 230.445312c0 4.710938-3.820313 8.53125-8.535156 8.53125-4.710938 0-8.53125-3.820312-8.53125-8.53125 0-4.714843 3.820312-8.535156 8.53125-8.535156 4.714843 0 8.535156 3.820313 8.535156 8.535156zm0 0"/><path d="m264.570312 119.511719c0 4.710937-3.820312 8.53125-8.535156 8.53125-4.710937 0-8.53125-3.820313-8.53125-8.53125 0-4.714844 3.820313-8.535157 8.53125-8.535157 4.714844 0 8.535156 3.820313 8.535156 8.535157zm0 0"/><path d="m366.96875 238.976562c0 4.714844-3.820312 8.535157-8.53125 8.535157-4.714844 0-8.535156-3.820313-8.535156-8.535157 0-4.710937 3.820312-8.53125 8.535156-8.53125 4.710938 0 8.53125 3.820313 8.53125 8.53125zm0 0"/><path d="m401.101562 273.109375c0 4.714844-3.820312 8.535156-8.53125 8.535156-4.714843 0-8.535156-3.820312-8.535156-8.535156 0-4.710937 3.820313-8.53125 8.535156-8.53125 4.710938 0 8.53125 3.820313 8.53125 8.53125zm0 0"/><path d="m435.234375 238.976562c0 4.714844-3.820313 8.535157-8.53125 8.535157-4.714844 0-8.535156-3.820313-8.535156-8.535157 0-4.710937 3.820312-8.53125 8.535156-8.53125 4.710937 0 8.53125 3.820313 8.53125 8.53125zm0 0"/><path d="m401.101562 204.84375c0 4.714844-3.820312 8.535156-8.53125 8.535156-4.714843 0-8.535156-3.820312-8.535156-8.535156 0-4.710938 3.820313-8.53125 8.535156-8.53125 4.710938 0 8.53125 3.820312 8.53125 8.53125zm0 0"/><path d="m187.769531 375.511719c-4.714843 0-8.535156-3.820313-8.535156-8.535157v-68.265624c0-4.714844 3.820313-8.535157 8.535156-8.535157 4.710938 0 8.53125 3.820313 8.53125 8.535157v68.265624c0 4.714844-3.820312 8.535157-8.53125 8.535157zm0 0"/><path d="m221.902344 341.378906h-68.265625c-4.714844 0-8.535157-3.820312-8.535157-8.535156 0-4.710938 3.820313-8.53125 8.535157-8.53125h68.265625c4.710937 0 8.535156 3.820312 8.535156 8.53125 0 4.714844-3.824219 8.535156-8.535156 8.535156zm0 0"/><path d="m321.445312 40.757812c-1.992187 0-3.921874-.699218-5.453124-1.972656-34.75-28.894531-85.164063-28.894531-119.910157 0-3.628906 3.015625-9.015625 2.519532-12.035156-1.109375-3.015625-3.628906-2.519531-9.015625 1.109375-12.03125 41.085938-34.144531 100.671875-34.144531 141.757812 0 2.773438 2.296875 3.804688 6.089844 2.578126 9.476563-1.226563 3.386718-4.445313 5.636718-8.046876 5.628906zm0 0"/><path d="m305.921875 73.011719c-2.367187.003906-4.632813-.980469-6.246094-2.710938-11.261719-12.148437-27.074219-19.054687-43.640625-19.054687-16.5625 0-32.378906 6.90625-43.640625 19.054687-3.210937 3.445313-8.613281 3.632813-12.058593.421875-3.449219-3.214844-3.636719-8.617187-.425782-12.0625 14.492188-15.613281 34.828125-24.484375 56.125-24.484375 21.300782 0 41.636719 8.871094 56.125 24.484375 2.316406 2.484375 2.9375 6.105469 1.585938 9.21875-1.355469 3.117188-4.429688 5.132813-7.824219 5.132813zm0 0"/><path d="m285.28125 102.445312c-2.855469.003907-5.523438-1.421874-7.109375-3.796874-5.023437-7.511719-13.144531-12.378907-22.136719-13.269532-8.992187.890625-17.109375 5.757813-22.136718 13.269532-2.613282 3.917968-7.914063 4.976562-11.835938 2.363281-3.917969-2.617188-4.976562-7.914063-2.363281-11.835938 8.152343-12.289062 21.617187-20.019531 36.335937-20.863281 14.722656.84375 28.183594 8.574219 36.335938 20.863281 1.253906 1.882813 1.710937 4.1875 1.265625 6.410157-.445313 2.21875-1.753907 4.171874-3.636719 5.425781-1.398438.9375-3.039062 1.433593-4.71875 1.433593zm0 0"/></svg>